<!-- Generator: Adobe Illustrator 17.0.0, SVG Export Plug-In  -->
<svg version="1.1"
	 xmlns="http://www.w3.org/2000/svg" xmlns:xlink="http://www.w3.org/1999/xlink" xmlns:a="http://ns.adobe.com/AdobeSVGViewerExtensions/3.0/"
	 x="0px" y="0px" width="630.774px" height="114.658px" viewBox="0 0 630.774 114.658" enable-background="new 0 0 630.774 114.658"
	 xml:space="preserve">
<defs>
</defs>
<g>
	<path fill-rule="evenodd" clip-rule="evenodd" d="M463.54,67.907c-0.378-0.283-0.661-0.566-0.944-0.85l-3.021-2.549l-0.661,0.85
		c-2.832,3.399-4.626,7.364-5.287,11.707c-0.661,4.437-0.094,8.969,1.605,13.218c0.661,1.794,1.794,3.399,3.304,4.626
		c-1.699-4.248-2.266-8.969-1.605-13.501c0.755-4.532,2.644-8.78,5.57-12.273L463.54,67.907L463.54,67.907z"/>
	<path fill-rule="evenodd" clip-rule="evenodd" d="M583.915,76.404c0.472-0.944,1.039-1.888,1.605-2.832
		c-2.455-0.283-4.909-0.472-7.364-0.567c-1.605,4.06-3.399,8.025-5.287,11.991c-2.172,4.532-4.532,8.969-7.081,13.218
		c-2.172,3.493-4.815,6.514-7.931,9.158h-0.094l0,0c-1.511,1.133-3.116,2.077-4.909,2.738l0,0
		c-4.815,1.605-9.913,1.322-14.539-0.755c5.004,4.815,12.179,6.42,18.599,4.154c1.699-0.661,3.21-1.511,4.721-2.549
		c2.927-2.549,5.57-5.476,7.647-8.78c2.549-4.248,4.909-8.686,7.081-13.123c1.983-4.248,3.871-8.402,5.57-12.745L583.915,76.404
		L583.915,76.404z"/>
	<path fill-rule="evenodd" clip-rule="evenodd" d="M535.765,107.937c-1.511-0.944-2.832-2.171-3.965-3.493
		c-2.927,2.455-6.231,4.437-9.819,5.759c-3.493,1.416-7.459,1.416-10.952,0l-0.566-0.189c1.511,1.511,3.399,2.832,5.476,3.588
		c3.305,1.322,6.892,1.322,10.197,0C529.628,112.28,532.933,110.392,535.765,107.937L535.765,107.937z"/>
	<path fill-rule="evenodd" clip-rule="evenodd" d="M502.249,102.745c-0.661-1.133-1.227-2.36-1.51-3.682
		c-0.094-0.472-0.189-0.944-0.283-1.416c-12.463,9.441-27.852,14.256-43.43,13.501c-0.85-0.095-1.699-0.189-2.549-0.283
		c-3.871-0.472-7.553-1.605-10.952-3.399c4.437,3.777,9.913,6.137,15.672,6.703c0.755,0.189,1.605,0.283,2.36,0.283
		C476.097,115.113,490.353,111.053,502.249,102.745L502.249,102.745z"/>
	<path fill-rule="evenodd" clip-rule="evenodd" d="M486.482,39.016l-3.21,6.326l-0.566,1.133l-1.416-0.378l-6.703-1.511
		c-3.399-0.661-6.703-1.227-10.102-1.699c-0.189,0.094-0.378,0.189-0.472,0.378c-0.094,0.094-0.189,0.283-0.189,0.472v0.095v0.094
		c0,0.189,0.094,0.283,0.189,0.378c0.094,0.094,0.283,0.189,0.378,0.094h0.189h0.189c4.154,0.283,8.308,0.85,12.368,1.699
		c2.832,0.472,5.57,1.227,8.308,2.077c0.566,0.189,1.038,0.378,1.511,0.661l3.21-6.42c0-0.189,0-0.378-0.094-0.567
		C488.937,40.81,487.709,39.866,486.482,39.016L486.482,39.016z"/>
	<path fill-rule="evenodd" clip-rule="evenodd" d="M493.469,55.822l-1.039,4.626l-0.755,0.189c-0.944,0.189-1.983,0.189-2.927-0.094
		l0,0h-0.094c-2.455-0.944-4.91-1.605-7.553-1.888c0.944,1.038,1.794,2.077,2.549,3.116c3.399,0.189,6.798,0.944,10.008,2.171
		c0.755,0.189,1.511,0.189,2.266,0.094l0.944-4.343c0.094-0.094,0.094-0.094,0.094-0.094c-0.094-0.378-0.283-0.661-0.378-0.944
		C495.64,57.521,494.602,56.577,493.469,55.822L493.469,55.822z"/>
	<path fill-rule="evenodd" clip-rule="evenodd" d="M486.765,66.396c3.777,6.703,5.57,14.351,4.91,22.092l1.511-0.755l1.794-1.039
		c-0.566-6.42-2.738-12.557-6.42-17.844C487.898,68.001,487.332,67.151,486.765,66.396L486.765,66.396z"/>
	<path fill-rule="evenodd" clip-rule="evenodd" d="M519.054,57.616l-0.85,31.25l0,0c-0.378,2.455,0.944,4.91,3.21,5.854
		c0-0.472,0-0.944,0.094-1.416l0.944-35.688H519.054L519.054,57.616z"/>
	<path fill-rule="evenodd" clip-rule="evenodd" d="M548.417,57.616l-0.472,32.006l0,0c-0.094,1.039,0,2.171,0.189,3.21
		c0.094,0.661,0.378,1.322,0.85,1.888c0.472,0.661,1.416,0.944,2.266,0.85c0-0.566,0-1.039,0-1.511l0.566-36.443H548.417
		L548.417,57.616z"/>
	<path fill-rule="evenodd" clip-rule="evenodd" d="M615.732,59.598c0.283,1.227,0.189,2.644-0.189,3.871
		c-0.567,3.777-2.172,7.364-4.532,10.291c-1.699,2.077-3.493,3.965-5.57,5.665c-1.227,1.039-2.36,2.171-3.399,3.399
		c-1.511,1.794-2.36,3.965-2.266,6.326c0.094,2.549,1.416,4.909,3.493,6.326c-0.094-0.567-0.189-1.133-0.189-1.794
		c0-2.549,0.85-5.098,2.549-7.081c1.133-1.322,2.266-2.455,3.588-3.588c1.983-1.605,3.777-3.493,5.382-5.476
		c2.266-2.832,3.777-6.231,4.249-9.819c0.661-1.888,0.378-3.871-0.661-5.57C617.526,61.203,616.676,60.259,615.732,59.598
		L615.732,59.598z"/>
	<path fill-rule="evenodd" clip-rule="evenodd" d="M624.135,91.415c0,1.322-0.378,2.549-0.944,3.777
		c-2.832,6.137-7.93,11.046-14.162,13.69c-1.322,0.566-2.643,1.039-3.965,1.416c-3.965,1.227-8.308,1.227-12.274-0.094
		c-0.566-0.189-1.039-0.378-1.605-0.566c1.888,1.794,4.06,3.21,6.515,3.965c3.776,1.227,7.836,1.227,11.613,0.094
		c1.227-0.378,2.549-0.85,3.776-1.416c5.948-2.549,10.858-7.175,13.595-13.123c0.661-1.322,0.85-2.832,0.661-4.249v-0.378
		c-0.094-0.472-0.189-0.944-0.472-1.416c-0.189-0.566-0.661-1.038-1.227-1.416c-0.283-0.189-0.567-0.378-0.944-0.378
		C624.513,91.321,624.324,91.321,624.135,91.415L624.135,91.415z"/>
	<path fill-rule="evenodd" clip-rule="evenodd" d="M336.934,68.284c0.094-0.472,0.189-0.944,0.283-1.416h0.094l0,0l0.094-0.661l0,0
		l0.094-0.094c0.283-0.85-0.094-1.888-0.944-2.36c-0.472-0.283-1.038-0.472-1.605-0.378c-1.322,0.566-2.36,1.605-2.832,3.021v0.094
		v0.094c-0.566,0.944-0.944,1.983-1.133,3.021c-0.567,1.983-0.755,4.154-0.755,6.231c0,1.416,0.189,2.832,0.472,4.249
		c1.227-1.416,2.36-3.021,3.305-4.626c0.094-0.566,0.189-1.133,0.283-1.605c0.283-1.133,0.755-2.266,1.227-3.304
		C335.801,69.7,336.272,68.851,336.934,68.284L336.934,68.284z"/>
	<path fill-rule="evenodd" clip-rule="evenodd" d="M288.878,72.91v-0.85c-0.094,0-0.094-0.094-0.189-0.189
		c-2.549-2.266-6.042-3.021-9.252-2.077c-1.322,0.661-2.455,1.794-3.21,3.116c-0.661,1.322-1.133,2.644-1.322,4.06
		c-0.189,2.455-0.378,5.004-0.378,7.459c0,1.133,0.189,2.266,0.378,3.399c0.378,1.605,1.416,2.927,2.927,3.776l0,0h0.094
		c0.094,0.094,0.094,0.094,0.189,0.189c-0.094-0.944-0.189-1.888-0.189-2.832c0-2.549,0.094-5.004,0.378-7.553
		c0.189-1.605,0.661-3.116,1.322-4.532c0.944-1.605,2.266-2.832,3.871-3.682C285.29,72.627,287.084,72.533,288.878,72.91
		L288.878,72.91z"/>
	<path fill-rule="evenodd" clip-rule="evenodd" d="M398.679,93.776c0,0.094-0.094,0.189-0.094,0.283
		c-0.189,0.944-0.472,1.794-0.85,2.738c-0.944,2.266-2.266,4.437-3.776,6.42c-1.511,1.983-3.399,3.588-5.476,4.909l0,0l0,0
		c-4.06,2.172-8.497,3.305-13.029,3.116c-2.832-0.189-5.57-0.85-8.12-2.077c3.493,3.21,7.931,5.098,12.651,5.382
		c4.343,0.189,8.591-0.85,12.462-2.927c1.983-1.227,3.682-2.738,5.098-4.626c1.511-1.888,2.738-3.965,3.588-6.231
		c0.378-0.755,0.661-1.605,0.85-2.455c0.189-1.039,0-2.077-0.566-2.927c-0.189-0.378-0.472-0.661-0.755-0.85
		c-0.378-0.378-0.755-0.566-1.227-0.755C399.151,93.776,398.868,93.776,398.679,93.776L398.679,93.776z"/>
	<path fill-rule="evenodd" clip-rule="evenodd" d="M365.54,108.126c-1.605-0.944-3.021-2.077-4.249-3.304
		c-2.171,1.322-4.532,2.455-6.986,3.304c-1.227,0.472-2.455,0.85-3.682,1.039c-5.287,0.944-10.857,0.189-15.672-2.266
		c5.476,4.909,12.84,6.986,20.015,5.57c1.133-0.189,2.36-0.472,3.493-0.944C360.914,110.675,363.274,109.542,365.54,108.126
		L365.54,108.126z"/>
	<path fill-rule="evenodd" clip-rule="evenodd" d="M331.08,104.444c-1.416-1.039-2.644-2.266-3.777-3.588
		c-3.965,3.304-8.403,6.042-13.123,8.119c-3.21,1.416-6.703,2.172-10.291,2.266c-2.172,0.094-4.437-0.378-6.42-1.227
		c0.85,0.85,1.699,1.605,2.738,2.171c2.455,1.699,5.287,2.455,8.214,2.455c3.399-0.189,6.703-0.85,9.819-2.266
		C322.866,110.392,327.209,107.654,331.08,104.444L331.08,104.444z"/>
	<path fill-rule="evenodd" clip-rule="evenodd" d="M292.277,106.615c-1.322-1.322-2.36-2.738-3.21-4.343
		c-0.944,1.605-2.077,3.021-3.399,4.343c-2.36,2.738-5.759,4.437-9.441,4.626c-3.588,0.189-7.081-0.567-10.291-2.172
		c0.85,0.755,1.699,1.416,2.644,1.983c3.588,2.455,7.836,3.777,12.179,3.588c3.304-0.189,6.42-1.794,8.497-4.343
		C290.483,109.259,291.427,107.937,292.277,106.615L292.277,106.615z"/>
	<path fill-rule="evenodd" clip-rule="evenodd" d="M310.026,33.541l-1.983,58.913c0.283,1.133,1.416,1.794,2.549,1.699
		c0.283,0,0.566,0,0.85-0.094l2.077-60.518H310.026L310.026,33.541z"/>
	<path fill-rule="evenodd" clip-rule="evenodd" d="M349.49,59.032c0.094,0.189,0.189,0.472,0.283,0.755
		c0.378,1.888,0.661,3.777,0.755,5.665c0,0.661,0,1.322,0,2.077l0,0v0.094c-0.944,9.158-5.004,17.655-11.518,24.169l-0.85,0.85
		c1.322,1.322,3.021,2.171,4.721,2.644c6.231-6.231,10.102-14.445,11.046-23.225c-0.094-0.661-0.094-1.322-0.094-1.983
		c-0.094-1.888-0.283-3.682-0.755-5.476c-0.378-1.983-1.416-3.777-2.927-5.098C349.962,59.315,349.773,59.126,349.49,59.032
		L349.49,59.032z"/>
	<path fill-rule="evenodd" clip-rule="evenodd" d="M382.062,33.541l-1.227,56.93c0,1.133,0.755,2.172,1.888,2.455
		c0.472,0.094,0.944,0.094,1.511,0.094l1.227-59.479H382.062L382.062,33.541z"/>
	<path fill-rule="evenodd" clip-rule="evenodd" d="M223.545,58.466l-2.832,13.218v0.094v0.094c-0.472,1.133-1.322,1.983-2.266,2.644
		h-0.189l-7.836,2.455c-4.532,1.322-8.591,3.682-12.085,6.703h-0.094l0,0l-1.794,1.511c0.944,0,1.888,0.094,2.832,0.378
		c1.227,0.283,2.455,0.566,3.682,0.944c3.399-2.738,7.364-4.815,11.613-6.137l7.742-2.36c0.85-0.472,1.416-1.227,1.794-2.077
		c1.133-4.815,2.172-9.63,3.116-14.445c0-0.755-0.283-1.511-0.85-2.077c-0.378-0.566-1.039-0.85-1.794-0.944
		c-0.283,0-0.566,0-0.944,0H223.545L223.545,58.466z"/>
	<path fill-rule="evenodd" clip-rule="evenodd" d="M223.545,92.643c0.094,1.511-0.094,3.021-0.567,4.437
		c-1.983,5.665-6.231,10.291-11.707,12.651c-2.927,1.322-6.231,1.794-9.441,1.227c-1.322-0.189-2.644-0.378-3.965-0.661l-6.42-1.699
		c-4.343-1.039-8.969-0.567-13.029,1.416h-0.094l-1.794,0.566c-1.983,0.567-4.06,0.755-6.137,0.567
		c-1.416,0-2.832-0.095-4.249-0.378l0,0l-0.094-0.094c-0.85-0.189-1.794-0.472-2.643-0.85l-0.755,0.283l0,0
		c-4.815,1.699-9.913,1.416-14.539-0.661c5.004,4.721,12.179,6.326,18.599,4.06c0.472-0.094,0.85-0.283,1.227-0.472
		c0.944,0.472,1.983,0.755,3.021,1.039c1.322,0.283,2.644,0.472,4.06,0.378c1.888,0.283,3.871,0.094,5.759-0.472l1.7-0.566
		c4.249-2.077,9.158-2.549,13.784-1.416l6.42,1.605c1.322,0.283,2.644,0.567,3.871,0.755c3.021,0.472,6.042,0.094,8.78-1.133
		c5.193-2.266,9.158-6.609,10.952-11.99c1.038-2.832,0.755-6.042-0.567-8.78c-0.283-0.189-0.566-0.378-0.944-0.567
		c-0.189,0.094-0.378,0.283-0.567,0.378L223.545,92.643L223.545,92.643z"/>
	<path fill-rule="evenodd" clip-rule="evenodd" d="M145.56,107.937c-1.511-0.944-2.832-2.077-3.965-3.399
		c-2.927,2.455-6.231,4.343-9.819,5.759c-3.493,1.322-7.459,1.322-10.952,0l-0.566-0.283c1.511,1.605,3.399,2.832,5.476,3.682
		c3.304,1.227,6.892,1.227,10.197,0C139.423,112.28,142.728,110.392,145.56,107.937L145.56,107.937z"/>
	<path fill-rule="evenodd" clip-rule="evenodd" d="M116.104,107.465c-1.322-1.039-2.455-2.36-3.493-3.777l-1.227,0.85
		c-3.777,2.455-7.931,4.437-12.274,5.759c-4.06,1.322-8.308,1.227-12.368-0.094c-0.472-0.094-1.039-0.378-1.511-0.566
		c1.794,1.794,3.965,3.21,6.42,3.965c3.777,1.227,7.836,1.322,11.613,0.094c4.249-1.322,8.308-3.21,11.99-5.665L116.104,107.465
		L116.104,107.465z"/>
	<path fill-rule="evenodd" clip-rule="evenodd" d="M77.961,76.404c0.472-0.944,0.944-1.888,1.511-2.832
		c-2.549-0.283-5.098-0.472-7.647-0.567l-0.189,0.472l-1.322,2.077c-2.832,5.004-5.759,10.008-8.875,14.823
		c-7.931,12.462-21.337,20.204-35.971,20.865h-0.094l0,0c-3.965-0.283-7.836-1.322-11.329-3.21c1.227,1.039,2.455,1.983,3.871,2.832
		c3.682,2.172,7.742,3.399,11.99,3.682c14.351-0.567,27.38-8.12,35.027-20.204c3.116-4.909,6.042-9.819,8.875-14.917l1.322-1.983
		l0.566-1.133L77.961,76.404L77.961,76.404z"/>
	<path fill-rule="evenodd" clip-rule="evenodd" d="M57.568,62.525c-0.567-2.077-0.85-4.249-0.661-6.42
		c0.094-0.472,0.189-0.85,0.283-1.227c0.283-1.039,0.85-1.794,1.605-2.36c0.189-0.094,0.283-0.189,0.378-0.283
		c0-4.909-1.888-9.535-5.287-13.029c2.077,4.437,2.549,9.441,1.227,14.162c-0.094,0.755-0.283,1.605-0.378,2.36
		c-0.755,4.532-2.36,8.969-4.909,12.84c-0.567,0.944-1.227,1.794-1.983,2.549c-0.566,0.755-1.322,1.511-1.983,2.172
		c-3.399,3.304-8.025,4.909-12.746,4.437c-0.755,0-1.605-0.189-2.36-0.472c1.7,2.266,4.249,3.588,7.081,3.871
		c4.343,0.378,8.592-1.133,11.707-4.154c0.661-0.661,1.322-1.322,1.983-2.077c0.661-0.755,1.322-1.605,1.888-2.455
		C55.302,69.417,56.718,66.018,57.568,62.525L57.568,62.525z"/>
	<path fill-rule="evenodd" clip-rule="evenodd" d="M35.003,59.504c0,0.283,0.094,0.472,0.094,0.755c0,0.472,0.189,0.944,0.472,1.416
		c0.094,0.094,0.189,0.189,0.283,0.283l0,0v0.094c0.189,0.189,0.378,0.378,0.566,0.472c0.189,0.189,0.378,0.283,0.661,0.283
		c0.283-0.095,0.472-0.095,0.755-0.283c0.189-0.094,0.283-0.189,0.472-0.378c0-0.661-0.094-1.322-0.283-1.983
		c-0.094-0.472-0.378-0.85-0.85-1.039L35.003,59.504L35.003,59.504z"/>
	<path fill-rule="evenodd" clip-rule="evenodd" d="M39.441,49.496c-0.378-0.85-0.944-1.511-1.605-2.171
		c-1.133-0.944-2.549-1.322-3.965-1.133c-3.399,0.755-6.42,2.738-8.403,5.57c-1.227,1.699-2.266,3.588-3.021,5.476
		c-2.266,6.42-3.399,13.123-3.493,19.826c-0.094,5.193,1.416,10.291,4.343,14.634c0.378,0.472,0.85,0.944,1.416,1.416
		c-1.699-3.682-2.455-7.553-2.455-11.518c0-3.871,0.472-7.647,1.227-11.424c-0.755-1.888-1.133-3.871-1.133-5.854
		c0-2.266,0.094-4.532,0.378-6.798l0,0v-0.094c0.189-0.85,0.566-1.605,1.227-2.266l0.283-0.283l6.326-1.133
		c2.077-2.171,4.721-3.588,7.553-4.154C38.591,49.496,39.063,49.496,39.441,49.496L39.441,49.496z"/>
	<path fill-rule="evenodd" clip-rule="evenodd" d="M111.383,61.203c-0.472-0.661-1.039-1.133-1.699-1.605
		c0.283,1.322,0.189,2.644-0.189,3.871c-0.567,3.777-2.077,7.364-4.532,10.385c-1.699,1.983-3.493,3.871-5.57,5.57
		c-1.227,1.039-2.36,2.171-3.399,3.399c-1.322,1.605-2.171,3.588-2.266,5.759v0.755c0.189,2.077,1.133,4.059,2.644,5.57
		c0.283,0.283,0.661,0.567,0.944,0.85c-0.094-0.661-0.189-1.227-0.283-1.888v-0.85c0.189-2.36,1.039-4.626,2.644-6.42
		c1.038-1.227,2.266-2.455,3.493-3.588c1.983-1.605,3.777-3.399,5.382-5.381c1.039-1.227,1.794-2.549,2.549-3.965L111.383,61.203
		L111.383,61.203z"/>
	<path fill-rule="evenodd" clip-rule="evenodd" d="M128.849,57.616l-0.85,31.25v0.094c-0.378,2.455,0.944,4.815,3.21,5.759
		c0-0.472,0-0.944,0.094-1.416l0.944-35.688H128.849L128.849,57.616z"/>
	<path fill-rule="evenodd" clip-rule="evenodd" d="M158.211,57.616l-0.472,36.821c0.094,0.189,0.189,0.378,0.283,0.472l0.094,0.095
		l0,0c0.378,0.472,0.944,0.755,1.511,0.755c0.472-0.661,0.944-1.322,1.511-1.888l0.472-36.254H158.211L158.211,57.616z"/>
	<path fill-rule="evenodd" clip-rule="evenodd" d="M188.895,73.949l1.794-1.322c-1.227-0.189-2.549-0.472-3.682-0.944
		c-1.699-0.567-3.399-1.227-5.098-1.983c-1.511-0.661-3.021-1.038-4.721-1.322c-1.322-0.094-2.644,0.094-3.777,0.567h-0.094
		l-0.094,0.094h-0.094c0.567,1.322,1.605,2.36,2.832,2.927c0.378,0.189,0.755,0.378,1.133,0.472l0.378-0.094
		c1.416-0.566,2.927-0.755,4.437-0.566c1.699,0.189,3.399,0.661,5.098,1.416L188.895,73.949L188.895,73.949z"/>
	<path fill-rule="evenodd" clip-rule="evenodd" fill="#E63027" d="M396.13,89.999c-0.378-0.378-0.755-0.566-1.227-0.755
		c-0.566-0.094-1.038-0.094-1.605,0.094c-0.283,0.094-0.566,0.189-0.85,0.378c-0.378,0.189-0.755,0.472-1.039,0.755
		c-0.944,0.85-1.888,1.605-2.927,2.36c-1.794,1.133-3.965,1.605-6.042,1.227c-1.699-0.378-2.832-1.888-2.832-3.682l1.322-61.368
		H362.33v2.832l-1.039,50.605c-0.283,1.699-0.85,3.399-1.794,4.815c-1.322,2.077-2.927,3.965-4.815,5.665
		c-1.039,0.944-2.077,1.794-3.304,2.455c-0.661,0.472-1.511,0.85-2.36,1.038c-4.154,1.227-8.686,0-11.801-3.021l-0.755-0.755
		l1.699-1.699c6.326-6.326,10.291-14.54,11.141-23.414c0-0.661,0-1.322,0-1.983c-0.094-1.888-0.283-3.682-0.755-5.476
		c-0.378-1.983-1.416-3.777-2.927-5.098c-2.455-2.077-5.382-3.304-8.497-3.682c-3.21-0.472-6.42,0.378-8.969,2.36
		c-2.738,2.172-4.815,5.004-6.137,8.214c-3.493,8.025-4.06,17.089-1.322,25.491l0.944,3.021l-3.399,2.266
		c-2.172,1.605-4.815,2.455-7.553,2.738c-0.85,0.094-1.7-0.189-2.455-0.661c-0.755-0.566-1.227-1.322-1.416-2.171l2.077-63.539
		h-17.277l-0.661,30.873v0.283l-0.566-0.567c-2.832-3.304-6.609-5.665-10.763-6.703c-4.154-1.133-8.686-0.378-12.179,2.077
		c-3.965,2.832-7.081,6.703-9.063,11.141c-4.154,8.969-5.287,19.166-3.116,28.89c1.416,4.721,4.626,8.875,8.78,11.518
		c3.588,2.455,7.836,3.777,12.179,3.588c3.304-0.189,6.42-1.794,8.497-4.343c1.699-1.605,3.116-3.588,4.06-5.759l0.283-0.378
		l0.283,0.378c1.227,3.21,3.399,5.854,6.326,7.647c2.455,1.605,5.287,2.455,8.214,2.455c3.399-0.189,6.703-0.944,9.819-2.266
		c4.909-2.171,9.441-5.004,13.501-8.402l0.283-0.284c5.382,7.081,14.256,10.385,22.942,8.78c1.133-0.189,2.36-0.472,3.493-0.944
		c2.644-0.944,5.193-2.172,7.553-3.777c3.588,4.06,8.592,6.515,13.973,6.798c4.343,0.189,8.592-0.85,12.463-2.927
		c1.888-1.227,3.682-2.738,5.098-4.626c1.511-1.888,2.738-3.965,3.588-6.231c0.378-0.755,0.661-1.605,0.85-2.454
		c0.189-1.039,0-2.077-0.566-3.021C396.696,90.471,396.413,90.188,396.13,89.999L396.13,89.999L396.13,89.999z M330.986,66.018
		c0.566-1.794,1.983-3.116,3.682-3.777c0.85-0.189,1.794,0,2.549,0.472c1.322,0.755,1.888,2.36,1.416,3.777l-0.189,0.661
		c-1.322,5.854-4.154,11.141-8.403,15.389l-0.378-1.605c-0.378-1.605-0.661-3.304-0.661-5.098c0-2.171,0.283-4.437,0.755-6.514
		C330.041,68.19,330.419,67.057,330.986,66.018L330.986,66.018L330.986,66.018z M278.964,68.662c3.682-1.133,7.647-0.283,10.48,2.36
		c0.283,0.094,0.472,0.378,0.566,0.567c0.094,0,0.094,0.094,0.094,0.094l-0.378,13.878c-0.283,3.682-2.927,6.703-6.42,7.553
		c-1.983,0.944-4.249,0.755-6.042-0.472c-1.794-0.944-3.021-2.644-3.493-4.532c-0.283-1.227-0.378-2.455-0.378-3.682
		c-0.094-2.549,0.094-5.098,0.378-7.553c0.189-1.605,0.661-3.116,1.322-4.532C276.038,70.739,277.359,69.512,278.964,68.662
		L278.964,68.662z"/>
	<path fill-rule="evenodd" clip-rule="evenodd" fill="#E63027" d="M213.631,54.5L206.55,56.2c-5.57,1.416-11.518,0.755-16.616-1.983
		l-0.283-0.094c-0.944-0.567-2.077-1.039-3.116-1.416c-0.661-0.283-1.416-0.472-2.171-0.567c-4.626-0.189-9.252,1.133-13.029,3.871
		c-1.133,0.755-2.077,1.888-2.738,3.116c-0.283,0.566-0.378,1.133-0.472,1.794c-0.472,2.644,0.85,5.287,3.304,6.515
		c0.378,0.189,0.755,0.378,1.133,0.472l0.378-0.094c1.416-0.566,2.927-0.755,4.437-0.566c1.699,0.189,3.399,0.661,5.004,1.416
		c1.699,0.661,3.304,1.322,5.004,1.888c2.266,0.85,4.721,1.133,7.175,0.944c-6.137,3.965-11.802,8.592-16.711,13.973l-0.755,0.566
		c-5.759,0.755-11.046,3.682-14.728,8.12c-0.661,0.85-1.322,1.605-1.888,2.455v0.189c-1.227,0.378-2.549-0.094-3.305-1.039
		c-0.283-0.283-0.566-0.661-0.661-1.039l0.472-41.636H140.84v4.909l-0.944,29.929l-0.094,1.038c0.283,1.888-0.378,3.777-1.605,5.193
		c-1.322,1.416-3.116,2.171-5.004,2.171c-1.888,0-3.682-0.85-4.91-2.36c-1.227-1.416-1.794-3.304-1.511-5.193l0.944-35.688h-14.917
		l-0.944,35.782l-2.36,3.682c-0.472,0.661-1.039,1.416-1.605,1.983c-1.983,2.172-4.815,3.399-7.742,3.399
		c-1.794-0.189-3.399-0.944-4.626-2.172c-1.794-1.699-2.832-3.965-3.021-6.42v-0.85c0.189-2.36,1.039-4.626,2.644-6.42
		c1.038-1.322,2.266-2.455,3.493-3.588c1.983-1.605,3.777-3.399,5.382-5.381c2.36-2.832,3.776-6.231,4.249-9.913
		c0.661-1.794,0.378-3.871-0.661-5.476c-1.794-2.832-4.909-4.532-8.214-4.532C89.857,57.616,79,58.654,68.709,56.105
		c-2.266-0.944-4.343-2.36-5.948-4.249l-1.038,0.472c-0.755,0.283-1.511,0.661-2.172,1.133c-0.566,0.378-1.038,1.039-1.227,1.699
		c-0.094,0.378-0.094,0.661-0.189,1.039c-0.472,5.004,1.511,10.008,5.193,13.406c-3.021,10.48-10.291,19.166-20.11,24.075
		l-3.116,1.322c-2.172,0.944-4.532,1.605-6.892,1.983c-2.36,0.283-4.721-0.094-6.797-1.227c-1.511-0.85-2.927-1.983-4.06-3.399
		c-3.116-4.437-4.721-9.819-4.626-15.295c0.094-6.892,1.322-13.69,3.588-20.204c0.85-2.077,1.888-3.965,3.116-5.759
		c2.172-3.116,5.476-5.287,9.158-6.043c1.794-0.378,3.682,0.189,5.004,1.416c1.416,1.133,2.266,2.738,2.549,4.532
		c0.094,0.661,0.189,1.322,0.283,2.077c0.283,1.699,0.283,3.399,0,5.098c-0.189,1.133-0.567,2.172-1.039,3.116l-0.189,0.283
		c-0.378,0.85-0.944,1.511-1.699,1.983c-0.472,0.283-0.944,0.378-1.416,0.378c-0.472,0-0.944-0.094-1.322-0.378
		c-0.283-0.283-0.566-0.472-0.85-0.755c-0.094-0.189-0.189-0.283-0.378-0.472c-0.378-0.566-0.566-1.227-0.661-1.983
		c-0.094-0.755-0.094-1.605-0.094-2.36c0-0.755-0.095-1.605-0.283-2.36c-0.094-0.472-0.472-0.85-0.85-1.039l-7.836,1.416
		c-0.472,0.472-0.755,1.039-0.85,1.699c-0.283,2.172-0.472,4.343-0.378,6.609c0,1.794,0.378,3.682,1.038,5.476l0,0l0.661,1.511
		c1.605,3.021,4.626,5.004,8.025,5.287c4.249,0.378,8.592-1.133,11.707-4.154c0.661-0.661,1.322-1.322,1.983-2.077
		c0.661-0.755,1.227-1.605,1.888-2.455c2.36-3.777,3.965-8.025,4.626-12.368c0.189-0.85,0.283-1.605,0.472-2.455
		c1.511-5.759,0.472-11.896-3.116-16.616c-3.493-4.815-9.063-7.742-14.917-7.836c-0.378-0.094-0.661-0.094-1.039-0.094
		c-4.249,0.378-8.402,1.605-12.179,3.682c-3.116,1.983-5.948,4.343-8.403,7.081C8.096,46.758,3.659,55.633,1.582,65.074
		c-0.378,1.794-0.661,3.588-0.944,5.382c-1.227,7.27-0.661,14.728,1.511,21.809c1.888,5.854,5.854,10.857,11.235,13.973
		c3.588,2.266,7.742,3.493,11.99,3.777C39.63,109.448,52.753,101.8,60.4,89.81c3.116-4.909,6.042-9.819,8.875-14.917l1.322-1.983
		l0.472-1.133c3.116,0.094,6.231,0.378,9.347,0.661c0.378,0.094,0.755,0.094,1.038,0.189c-3.776,5.759-5.854,12.463-5.854,19.354
		c0.094,1.7,0.283,3.305,0.661,4.815c1.133,5.759,5.287,10.48,10.857,12.273c3.777,1.227,7.836,1.322,11.613,0.094
		c4.249-1.322,8.308-3.21,11.99-5.665l2.36-1.511v0.189c1.888,3.116,4.721,5.57,8.12,6.987c3.304,1.227,6.892,1.227,10.197,0
		c3.682-1.511,7.175-3.588,10.197-6.231l0.189-0.094l0.189,0.189c4.815,6.042,12.934,8.497,20.204,5.948
		c0.472-0.094,0.85-0.283,1.227-0.472c0.944,0.378,1.983,0.755,3.021,1.038c1.322,0.283,2.643,0.378,4.06,0.378
		c1.888,0.283,3.871,0.094,5.759-0.567l1.605-0.472c4.343-2.077,9.253-2.644,13.879-1.416l6.42,1.605
		c1.322,0.283,2.549,0.567,3.871,0.755c3.021,0.472,6.042,0,8.78-1.133c5.193-2.266,9.158-6.609,10.952-11.99
		c1.038-2.832,0.755-6.042-0.567-8.78c-0.283-0.189-0.566-0.378-0.944-0.567c-0.189,0.094-0.378,0.283-0.661,0.378l-0.944,0.661
		c-2.36,1.322-5.004,1.794-7.647,1.511c-2.266-0.283-4.437-0.85-6.609-1.605c-1.7-0.661-3.493-1.133-5.287-1.605
		c-2.266-0.472-4.626-0.378-6.798,0.378c1.7-1.511,3.493-2.927,5.193-4.343c3.682-3.116,7.93-5.476,12.557-6.892l7.742-2.36
		c0.755-0.472,1.416-1.227,1.794-2.077c1.133-4.815,2.172-9.63,3.021-14.445c0-0.755-0.283-1.511-0.755-2.077
		c-0.472-0.566-1.039-0.85-1.794-0.944c-0.283,0-0.661,0-0.944,0c-0.283,0-0.661,0-0.944,0
		C216.652,53.934,215.142,54.123,213.631,54.5L213.631,54.5z"/>
	<path fill-rule="evenodd" clip-rule="evenodd" fill="#E63027" d="M577.307,71.778c3.021,0.094,6.042,0.283,9.063,0.661
		c0.378,0,0.755,0.094,1.133,0.094c-3.871,5.759-5.854,12.557-5.854,19.449c0,1.605,0.283,3.21,0.661,4.815
		c1.133,5.759,5.287,10.48,10.857,12.273c3.777,1.227,7.836,1.227,11.613,0.094c1.227-0.378,2.549-0.85,3.777-1.416
		c5.948-2.549,10.763-7.27,13.595-13.123c0.661-1.322,0.85-2.832,0.661-4.343v-0.283c-0.094-0.472-0.189-0.944-0.472-1.416
		c-0.283-0.566-0.661-1.039-1.227-1.416c-0.283-0.189-0.567-0.378-0.944-0.378s-0.755,0.094-1.039,0.189
		c-0.755,0.378-1.322,0.85-1.794,1.511c-0.189,0.283-0.283,0.661-0.378,0.944c-0.094,0.472-0.283,0.944-0.472,1.416
		c-1.699,3.682-5.192,6.326-9.347,6.986c-0.378,0-0.85,0-1.322,0c-4.06-0.85-7.175-4.437-7.27-8.686c0-2.549,0.85-5.098,2.549-7.081
		c1.133-1.322,2.266-2.455,3.587-3.588c1.983-1.605,3.777-3.493,5.382-5.476c2.266-2.832,3.777-6.231,4.248-9.819
		c0.661-1.888,0.378-3.871-0.661-5.57c-1.794-2.738-4.909-4.437-8.214-4.437h-0.094c-8.403,3.399-17.466,4.815-26.53,3.871
		c-3.871-0.378-7.459-2.266-10.008-5.193l-1.039,0.472c-0.85,0.283-1.511,0.567-2.171,1.133c-0.661,0.378-1.039,0.944-1.227,1.605
		c-0.094,0.378-0.189,0.755-0.189,1.133c-0.472,4.532,1.227,9.064,4.532,12.273c-2.266,7.553-5.665,14.728-10.102,21.337
		c-0.661,1.133-1.322,2.266-2.172,3.21c-0.85,1.133-1.794,2.077-2.927,2.832c-0.566,0.378-1.227,0.661-1.888,0.85
		c-1.416,0.283-2.738-0.189-3.588-1.322c-0.566-0.661-0.944-1.416-1.133-2.266c-0.189-1.227-0.284-2.454-0.189-3.587l0.472-36.443
		h-16.145v4.815L530.1,87.922l-0.094,0.944c0.283,1.888-0.378,3.777-1.605,5.193c-1.322,1.416-3.116,2.266-5.004,2.266
		c-1.888-0.094-3.682-0.944-4.91-2.36c-1.227-1.416-1.794-3.304-1.511-5.193l0.944-35.688h-14.917l-0.755,30.212l-0.094,0.472
		c-2.644,1.888-5.476,3.493-8.403,5.004c-1.038,0.472-1.983,1.039-3.021,1.605c-0.094,0.094-0.189,0.094-0.378,0.094h-0.094
		l0.189-0.944c0.944-8.875-1.322-17.844-6.515-25.208c-1.511-2.36-3.304-4.532-5.193-6.609l-0.472-0.566
		c3.776,0.189,7.364,0.944,10.857,2.266c0.755,0.189,1.511,0.189,2.266,0l0.944-4.249c0.094-0.094,0.094-0.094,0.094-0.189
		c-0.094-0.283-0.283-0.566-0.378-0.944c-1.888-2.077-4.249-3.777-6.987-4.626c-2.644-0.944-5.381-1.699-8.214-2.171
		c-3.965-0.755-8.025-1.322-12.179-1.605c-0.472,0.094-1.038,0-1.416-0.378c-0.472-0.378-0.661-0.85-0.566-1.416
		c-0.094-0.472,0.094-1.039,0.472-1.416c0.283-0.378,0.755-0.661,1.322-0.755c3.493,0.472,6.892,1.039,10.291,1.699l6.798,1.605
		l0.472,0.094l0.189-0.283l3.399-6.892c0-0.189,0-0.378-0.094-0.566c-3.777-3.493-8.497-5.948-13.596-7.081
		c-3.965-1.038-8.025-1.416-12.085-1.133c-5.287,0.567-10.008,3.682-12.746,8.403c-0.661,1.133-1.039,2.266-1.322,3.588
		c-0.566,3.588,0.378,7.27,2.644,10.008l0.567,0.755l-0.944,0.472c-7.742,3.588-13.879,9.913-17.277,17.655
		c-1.227,2.927-1.888,5.948-2.077,8.969c-0.378,7.458,2.077,14.823,6.892,20.487c4.815,5.759,11.613,9.347,19.071,10.197
		c0.755,0.189,1.605,0.189,2.36,0.283c16.144,0.755,31.911-4.437,44.468-14.539c0.094,1.133,0.189,2.266,0.378,3.399
		c0.283,1.227,0.85,2.36,1.511,3.493c1.888,3.116,4.721,5.476,8.025,6.798c3.305,1.322,6.892,1.322,10.197,0
		c3.682-1.416,7.175-3.493,10.196-6.137l0.189-0.189l0.189,0.283c4.815,6.042,12.934,8.497,20.204,5.948
		c1.7-0.661,3.21-1.511,4.627-2.549c3.021-2.549,5.665-5.476,7.742-8.78c2.549-4.343,4.909-8.686,7.081-13.218
		C573.813,80.274,575.701,76.026,577.307,71.778L577.307,71.778L577.307,71.778z M457.97,64.602l1.511-1.794l3.871,3.304
		c5.193,4.532,8.025,11.14,7.836,18.033c0.189,5.004-2.549,9.725-6.892,12.085l-0.755,0.472c-0.472,0.283-1.038,0.566-1.699,0.755
		c-0.472,0.094-0.944,0.094-1.416,0c-0.472-0.094-0.944-0.378-1.322-0.661c-0.472-0.189-0.85-0.472-1.227-0.755
		c-1.7-1.416-3.021-3.21-3.777-5.381c-1.794-4.343-2.36-9.158-1.699-13.784C453.154,72.344,455.043,68.095,457.97,64.602
		L457.97,64.602z"/>
	<path fill-rule="evenodd" clip-rule="evenodd" d="M623.38,39.961c2.738-0.944,5.004-2.927,6.326-5.57
		c1.227-2.644,1.416-5.665,0.472-8.497c-1.039-2.738-3.021-5.004-5.665-6.231c-2.644-1.227-5.665-1.416-8.403-0.472
		c-2.738,0.944-5.004,3.021-6.326,5.665c-1.227,2.549-1.416,5.664-0.472,8.402c1.038,2.738,3.021,5.004,5.664,6.231
		C617.62,40.81,620.642,40.905,623.38,39.961L623.38,39.961L623.38,39.961z M618.187,38.544c-2.36-0.472-4.437-1.794-5.854-3.777
		c-1.416-1.888-1.983-4.343-1.511-6.703c0.378-2.36,1.699-4.532,3.682-5.948c1.982-1.322,4.437-1.888,6.798-1.511
		c2.36,0.472,4.438,1.794,5.854,3.776c1.416,1.983,1.983,4.343,1.511,6.798c-0.378,2.36-1.699,4.437-3.682,5.854
		C623.002,38.356,620.547,38.922,618.187,38.544L618.187,38.544z"/>
	<path fill-rule="evenodd" clip-rule="evenodd" d="M614.788,35.712h2.455v-4.909h2.927c0.283,0,0.566,0.094,0.85,0.189
		c0.378,0.094,0.661,0.378,0.755,0.755c0.094,0.283,0.094,0.567,0.094,0.85c0.094,0.755,0.094,1.416,0.189,2.171
		c0,0.189,0,0.378,0,0.567c0.094,0.094,0.094,0.283,0.189,0.378h2.927v-0.378c-0.094,0-0.094,0-0.189-0.094c0,0,0,0-0.094-0.094
		c0,0-0.094-0.094-0.094-0.189c0-0.094-0.094-0.283-0.094-0.378c-0.094-0.472-0.094-0.944-0.094-1.416c0-0.566,0-1.038-0.094-1.511
		c0-0.378-0.094-0.661-0.283-0.944c-0.094-0.283-0.283-0.472-0.567-0.661c-0.189-0.094-0.378-0.189-0.566-0.283
		c0.094-0.094,0.189-0.094,0.283-0.189c0.567-0.283,1.039-0.755,1.322-1.416c0.189-0.567,0.283-1.133,0.189-1.699
		c0-1.039-0.566-1.983-1.322-2.549c-0.661-0.472-1.511-0.755-2.36-0.755h-6.42V35.712L614.788,35.712L614.788,35.712z
		 M617.243,25.421h3.304c0.283,0,0.567,0,0.85,0.094c0.472,0.189,0.755,0.661,0.85,1.133c0.094,0.472,0,0.944-0.189,1.416
		c-0.189,0.189-0.472,0.378-0.661,0.472c-0.283,0.094-0.472,0.094-0.755,0.189h-3.399V25.421L617.243,25.421z"/>
	<path fill-rule="evenodd" clip-rule="evenodd" d="M238.225,13.136c0,1.303,0.521,2.606,1.476,3.474
		c0.869,0.868,1.911,1.477,3.04,1.824c1.998,0.521,3.995,0.869,6.079,0.782c1.563,0,3.04-0.087,4.603-0.261
		c1.563-0.173,3.127-0.521,4.516-1.216c0.956-0.348,1.737-1.042,2.345-1.824c0.608-0.956,0.955-1.998,0.869-3.127
		c0.087-0.869-0.174-1.737-0.608-2.519c-0.434-0.869-1.216-1.476-2.084-1.911c-1.042-0.521-2.171-0.782-3.3-0.956l-6.34-0.869
		L248.3,6.449c-0.521-0.087-0.955-0.174-1.477-0.347c-0.087,0-0.26-0.087-0.434-0.174c-0.173-0.174-0.347-0.434-0.26-0.695
		c0-0.087,0-0.087,0-0.174c0-0.174,0.174-0.348,0.348-0.521c0.174-0.087,0.347-0.26,0.608-0.26c0.434-0.174,1.042-0.261,1.563-0.261
		c0.521,0,1.042,0.087,1.563,0.174c0.434,0.087,0.869,0.26,1.216,0.434c0.434,0.261,0.695,0.695,0.782,1.129h8.164
		c-0.087-1.65-0.955-3.127-2.345-3.995c-0.955-0.608-1.998-0.955-3.04-1.216c-1.998-0.434-3.995-0.608-6.079-0.521
		c-1.303,0-2.606,0-3.908,0.174c-1.303,0.174-2.606,0.521-3.821,1.129c-0.782,0.348-1.477,0.955-1.911,1.65
		c-0.608,0.869-0.869,1.824-0.782,2.866c-0.087,0.869,0.174,1.824,0.608,2.519c0.608,0.955,1.477,1.563,2.432,1.998
		c1.129,0.521,2.258,0.782,3.474,0.869l5.298,0.695h0.174c0.521,0.087,0.955,0.174,1.476,0.347c0.174,0.087,0.348,0.26,0.521,0.348
		c0.26,0.174,0.347,0.434,0.347,0.695c0,0.174,0,0.26-0.087,0.348c0,0.173-0.174,0.434-0.348,0.521
		c-0.261,0.174-0.521,0.261-0.782,0.347c-0.521,0.087-1.042,0.174-1.65,0.087c-0.608,0.087-1.129,0-1.737-0.174
		c-0.348-0.087-0.608-0.261-0.869-0.434c-0.348-0.174-0.521-0.521-0.521-0.869H238.225L238.225,13.136z"/>
	<polygon fill-rule="evenodd" clip-rule="evenodd" points="216.773,18.695 236.662,18.695 236.662,14.005 223.808,14.005 
		223.808,11.573 233.708,11.573 233.708,7.143 223.808,7.143 223.808,4.972 236.054,4.972 236.054,0.456 216.773,0.456 
		216.773,18.695 	"/>
	<polygon fill-rule="evenodd" clip-rule="evenodd" points="201.574,18.695 208.609,18.695 208.609,5.059 215.209,5.059 
		215.209,0.456 194.973,0.456 194.973,5.059 201.574,5.059 201.574,18.695 	"/>
	<path fill-rule="evenodd" clip-rule="evenodd" d="M185.072,0.456h-13.896v18.239h7.209v-5.558h4.169c0.174,0,0.261,0,0.434,0
		c0.347,0,0.695,0.087,1.042,0.174c0.348,0.174,0.608,0.348,0.782,0.695c0.174,0.261,0.26,0.608,0.26,0.955
		c0.087,0.434,0.087,0.956,0.087,1.477c0,0.521,0.087,1.129,0.174,1.65c0.087,0.173,0.174,0.434,0.26,0.608h7.817v-0.347
		c-0.087,0-0.087-0.087-0.174-0.087c-0.087-0.087-0.174-0.26-0.174-0.347c-0.174-0.26-0.26-0.521-0.26-0.782
		c-0.174-0.869-0.348-1.824-0.348-2.692v-0.608c0-0.173,0-0.347-0.087-0.521c0-0.608-0.087-1.129-0.26-1.563
		c-0.087-0.348-0.348-0.695-0.608-0.955c-0.348-0.348-0.869-0.608-1.303-0.782c0.26-0.174,0.521-0.26,0.782-0.434
		c1.39-0.955,2.258-2.519,2.171-4.169c0-0.26,0-0.434,0-0.695c-0.087-1.39-0.869-2.605-2.084-3.3l-0.087-0.087
		c-0.608-0.26-1.216-0.434-1.824-0.521C187.851,0.543,186.461,0.456,185.072,0.456L185.072,0.456L185.072,0.456z M178.384,8.359
		v-3.3h3.908c0.521,0,0.956,0.087,1.477,0.087c0.26,0.087,0.608,0.087,0.869,0.174c0.26,0.174,0.434,0.348,0.608,0.608
		c0.087,0.261,0.173,0.521,0.173,0.781c0,0.087-0.087,0.261-0.087,0.348c-0.087,0.347-0.261,0.695-0.521,0.869
		c-0.26,0.087-0.434,0.174-0.695,0.26c-0.521,0.087-1.129,0.174-1.65,0.174H178.384L178.384,8.359z"/>
	<path fill-rule="evenodd" clip-rule="evenodd" d="M145.12,9.575c0,1.824,0.434,3.561,1.303,5.124
		c1.042,1.65,2.605,2.866,4.429,3.474c2.084,0.695,4.342,1.042,6.514,0.955h0.955c2.171,0,4.256-0.434,6.253-1.216
		c1.564-0.695,2.866-1.824,3.822-3.214c0.869-1.563,1.303-3.3,1.216-5.124c0.087-1.824-0.347-3.561-1.216-5.124
		c-1.042-1.65-2.606-2.866-4.429-3.474c-2.171-0.695-4.343-1.042-6.601-0.955h-0.955c-2.085,0-4.256,0.434-6.166,1.216
		c-1.563,0.695-2.953,1.737-3.821,3.213C145.555,6.014,145.12,7.751,145.12,9.575L145.12,9.575L145.12,9.575z M152.763,9.575
		c0-0.695,0.087-1.39,0.26-1.998c0.261-1.042,0.956-1.91,1.911-2.432c0.782-0.347,1.65-0.521,2.432-0.521
		c0.608,0,1.129,0.087,1.65,0.261c1.129,0.261,2.085,1.042,2.519,2.084c0.347,0.869,0.521,1.737,0.521,2.606
		c0,0.695-0.087,1.39-0.26,1.998c-0.348,1.042-1.042,1.911-1.911,2.345c-0.782,0.347-1.65,0.608-2.519,0.521
		c-0.521,0-1.042,0-1.65-0.174c-1.042-0.261-1.998-1.042-2.519-2.084C152.85,11.312,152.676,10.444,152.763,9.575L152.763,9.575z"/>
	<path fill-rule="evenodd" clip-rule="evenodd" d="M121.931,18.695h7.035v-6.427h6.601c1.39,0,2.779-0.173,4.169-0.608
		c1.042-0.348,1.998-1.042,2.779-1.911c0.695-0.955,1.129-2.171,1.042-3.387c0.087-1.042-0.261-2.171-0.869-3.04
		c-0.695-1.042-1.737-1.824-2.953-2.258c-1.39-0.434-2.779-0.608-4.169-0.608h-13.636V18.695L121.931,18.695L121.931,18.695z
		 M132.787,4.364c0.521,0,0.955,0.087,1.477,0.087c0.26,0.087,0.521,0.174,0.782,0.261c0.261,0.174,0.521,0.434,0.695,0.782
		c0.087,0.261,0.174,0.521,0.087,0.869c0.087,0.261,0,0.521-0.087,0.782c-0.087,0.348-0.347,0.695-0.695,0.869
		c-0.173,0.087-0.434,0.087-0.608,0.174c-0.521,0.087-1.042,0.087-1.65,0.087h-3.821V4.364H132.787L132.787,4.364z"/>
	<path fill-rule="evenodd" clip-rule="evenodd" d="M97.439,13.136c-0.087,1.303,0.434,2.606,1.39,3.474
		c0.869,0.868,1.911,1.477,3.04,1.824c1.998,0.521,4.082,0.869,6.079,0.782c1.563,0,3.127-0.087,4.603-0.261
		c1.563-0.173,3.127-0.521,4.603-1.216c0.869-0.348,1.65-1.042,2.258-1.824c0.608-0.956,0.955-1.998,0.955-3.127
		c0-0.869-0.174-1.737-0.608-2.519c-0.521-0.869-1.303-1.476-2.171-1.911c-1.042-0.521-2.085-0.782-3.214-0.956l-6.427-0.869
		l-0.521-0.087c-0.434-0.087-0.955-0.174-1.39-0.347c-0.174,0-0.348-0.087-0.434-0.174c-0.261-0.174-0.348-0.434-0.348-0.695
		c0-0.087,0-0.087,0-0.174c0.087-0.174,0.174-0.348,0.348-0.521c0.173-0.087,0.347-0.26,0.608-0.26
		c0.521-0.174,1.042-0.261,1.563-0.261c0.521,0,1.042,0.087,1.563,0.174c0.434,0.087,0.869,0.26,1.303,0.434
		c0.348,0.261,0.608,0.695,0.695,1.129h8.164c-0.087-1.65-0.955-3.127-2.345-3.995c-0.956-0.608-1.911-0.955-2.953-1.216
		c-1.998-0.434-4.082-0.608-6.079-0.521c-1.303,0-2.606,0-3.908,0.174c-1.39,0.174-2.692,0.521-3.908,1.129
		c-0.782,0.348-1.39,0.955-1.911,1.65c-0.521,0.869-0.782,1.824-0.782,2.866c0,0.869,0.173,1.824,0.695,2.519
		c0.521,0.955,1.39,1.563,2.345,1.998c1.129,0.521,2.345,0.782,3.561,0.869l5.211,0.695h0.26c0.434,0.087,0.955,0.174,1.39,0.347
		c0.174,0.087,0.434,0.26,0.521,0.348c0.261,0.174,0.347,0.434,0.347,0.695c0,0.174,0,0.26,0,0.348
		c-0.087,0.173-0.26,0.434-0.434,0.521c-0.26,0.174-0.434,0.261-0.695,0.347c-0.608,0.087-1.129,0.174-1.737,0.087
		c-0.521,0.087-1.129,0-1.737-0.174c-0.26-0.087-0.608-0.261-0.868-0.434c-0.261-0.174-0.521-0.521-0.521-0.869H97.439
		L97.439,13.136z"/>
	<polygon fill-rule="evenodd" clip-rule="evenodd" points="73.642,18.695 80.329,18.695 80.329,8.012 87.885,18.695 95.789,18.695 
		95.789,0.456 89.015,0.456 89.015,10.965 81.98,0.456 73.642,0.456 73.642,18.695 	"/>
	<path fill-rule="evenodd" clip-rule="evenodd" d="M47.847,18.695h7.556l0.695-1.824h7.73l0.608,1.824h7.643L64.696,0.456h-8.946
		L47.847,18.695L47.847,18.695L47.847,18.695z M57.748,12.355l2.345-6.34l2.171,6.34H57.748L57.748,12.355z"/>
	<path fill-rule="evenodd" clip-rule="evenodd" d="M37.946,0.456h-13.81v18.239h7.122v-5.558h4.169c0.174,0,0.26,0,0.434,0
		c0.348,0,0.782,0.087,1.129,0.174c0.261,0.174,0.608,0.348,0.782,0.695c0.087,0.261,0.174,0.608,0.26,0.955
		c0,0.434,0.087,0.956,0.087,1.477c0,0.521,0,1.129,0.174,1.65c0,0.173,0.087,0.434,0.174,0.608h7.817v-0.347
		c0,0-0.087-0.087-0.174-0.087c-0.087-0.087-0.173-0.26-0.173-0.347c-0.174-0.26-0.261-0.521-0.261-0.782
		c-0.173-0.869-0.261-1.824-0.347-2.692v-0.608c0-0.173,0-0.347,0-0.521c-0.087-0.608-0.174-1.129-0.348-1.563
		c-0.087-0.348-0.26-0.695-0.521-0.955c-0.434-0.348-0.869-0.608-1.39-0.782c0.26-0.174,0.608-0.26,0.869-0.434
		c1.39-0.955,2.171-2.519,2.171-4.169c0-0.26-0.087-0.434-0.087-0.695c-0.087-1.39-0.869-2.605-2.084-3.3l-0.087-0.087
		c-0.521-0.26-1.129-0.434-1.737-0.521C40.725,0.543,39.336,0.456,37.946,0.456L37.946,0.456L37.946,0.456z M31.258,8.359v-3.3
		h3.908c0.521,0,1.042,0.087,1.477,0.087c0.347,0.087,0.608,0.087,0.869,0.174c0.26,0.174,0.521,0.348,0.608,0.608
		c0.087,0.261,0.174,0.521,0.174,0.781c0,0.087,0,0.261-0.087,0.348c0,0.347-0.26,0.695-0.521,0.869
		c-0.173,0.087-0.434,0.174-0.695,0.26c-0.521,0.087-1.042,0.174-1.65,0.174H31.258L31.258,8.359z"/>
	<polygon fill-rule="evenodd" clip-rule="evenodd" points="8.851,18.695 15.886,18.695 15.886,5.059 22.487,5.059 22.487,0.456 
		2.337,0.456 2.337,5.059 8.851,5.059 8.851,18.695 	"/>
</g>
</svg>